<svg id="Capa_1" enable-background="new 0 0 497.355 497.355" height="512" viewBox="0 0 497.355 497.355" width="512" xmlns="http://www.w3.org/2000/svg"><g><path d="m347.677 152.123-3.582-3.582-16.436-14.947-35.208 37.769 11.41 17.412 3.582 3.582c10.826 10.826 28.379 10.826 39.206 0l1.028-1.028c10.826-10.827 10.826-28.38 0-39.206z" fill="#fef0ae"/><g><g><g id="XMLID_329_"><g><path d="m176.828 284.495v-92.11c0-6.53 2.64-12.44 6.92-16.72 4.352-4.352 10.378-7.008 17.039-6.918 13.014.176 23.311 11.149 23.311 24.164v123.663c0 4.374 3.546 7.92 7.92 7.92h13.07c14.144 0 25.61 11.466 25.61 25.61v68.15c0 3.58-1.15 7.06-3.28 9.94l-29.14 39.47v19.047c0 5.878-4.765 10.643-10.643 10.643h-163.244c-5.878 0-10.643-4.765-10.643-10.643v-31.697l-12.69-16.18c-3.92-5-6.05-11.17-6.05-17.53v-105.35-20.46c0-10.974 8.896-19.87 19.87-19.87h7.53c10.97 0 19.87 8.89 19.87 19.87v-7c0-10.974 8.896-19.87 19.87-19.87h7.53c9.64 0 17.66 6.85 19.48 15.94l.39-.07c0-10.98 8.9-19.87 19.87-19.87h7.54c10.97.001 19.87 8.891 19.87 19.871z" fill="#ffe5c2"/></g></g></g><g><path d="m93.869 486.712v-31.697l-12.69-16.18c-3.92-5-6.05-11.17-6.05-17.53v-105.35-20.46c0-4.224 1.341-8.136 3.588-11.356-3.592-5.146-9.56-8.515-16.308-8.515h-7.53c-10.974 0-19.87 8.896-19.87 19.87v20.46 105.35c0 6.36 2.13 12.53 6.05 17.53l12.69 16.18v31.697c0 5.878 4.765 10.643 10.643 10.643h40.12c-5.878.001-10.643-4.764-10.643-10.642z" fill="#fed2a4"/></g><path d="m172.267 44.689-11.201-11.201c-7.661-7.661-7.661-20.081 0-27.742 7.661-7.661 20.081-7.661 27.742 0l11.201 11.201 22.882 22.007-25.713 27.743z" fill="#fee97d"/><g id="XMLID_335_"><g><path d="m379.168 87.325-40.71-13.78-34.565 1.808-76.179 76.18 1.145 31.613 13.79 40.71c3 8.85 14.25 11.48 20.86 4.87l120.53-120.54c6.609-6.611 3.989-17.861-4.871-20.861z" fill="#fee45a"/><path d="m295.738 30.815 42.72 42.73-1.45 1.45-108.15 108.15v-.01l-42.72-42.72c-30.26-30.26-30.26-79.33 0-109.6 15.13-15.13 34.96-22.69 54.8-22.69 19.83 0 39.67 7.56 54.8 22.69z" fill="#fee97d"/></g></g><path d="m281.274 199.216-13.79-40.71v-.01l-23.366-23.367-16.403 16.403 1.145 31.613 13.79 40.71c3 8.85 14.25 11.48 20.86 4.87l22.931-22.933c-2.305-1.458-4.184-3.675-5.167-6.576z" fill="#fedf30"/><path d="m260.496 151.508-35.732-35.732c-28.74-28.74-30.147-74.462-4.295-104.915-12.569 3.43-24.46 10.084-34.33 19.954-30.26 30.27-30.26 79.34 0 109.6l42.72 42.72v.01z" fill="#fee45a"/><g><path d="m102.644 151.471c-1.882 0-3.765-.704-5.222-2.117-11.456-11.113-17.764-25.991-17.764-41.891s6.309-30.778 17.764-41.892c2.973-2.884 7.722-2.813 10.605.16 2.884 2.973 2.813 7.721-.16 10.605-8.518 8.264-13.209 19.318-13.209 31.126s4.691 22.862 13.208 31.125c2.973 2.884 3.045 7.632.161 10.605-1.469 1.517-3.426 2.279-5.383 2.279z" fill="#fee97d"/></g><g><path d="m124.668 131.005c-1.696 0-3.4-.572-4.804-1.743-6.486-5.417-10.206-13.362-10.206-21.799s3.72-16.382 10.206-21.799c3.178-2.656 7.908-2.231 10.564.949 2.655 3.179 2.23 7.909-.949 10.564-3.064 2.559-4.821 6.309-4.821 10.287s1.757 7.727 4.821 10.286c3.179 2.655 3.604 7.385.949 10.564-1.482 1.774-3.614 2.691-5.76 2.691z" fill="#fee97d"/></g><g><path d="m439.361 151.471c-1.958 0-3.913-.761-5.384-2.277-2.885-2.973-2.813-7.721.16-10.605 8.518-8.264 13.209-19.318 13.209-31.125s-4.691-22.861-13.209-31.126c-2.973-2.884-3.045-7.633-.16-10.605 2.883-2.972 7.631-3.045 10.605-.16 11.455 11.115 17.764 25.992 17.764 41.892s-6.309 30.777-17.764 41.891c-1.456 1.411-3.34 2.115-5.221 2.115z" fill="#fee97d"/></g><g><path d="m417.336 131.005c-2.146 0-4.277-.917-5.761-2.693-2.655-3.179-2.229-7.909.95-10.564 3.063-2.558 4.821-6.307 4.821-10.285s-1.758-7.728-4.821-10.287c-3.18-2.655-3.604-7.385-.948-10.564 2.655-3.18 7.386-3.603 10.563-.949 6.486 5.417 10.206 13.363 10.206 21.799 0 8.438-3.721 16.383-10.208 21.8-1.402 1.172-3.107 1.743-4.802 1.743z" fill="#fee97d"/></g></g></g></svg>