<svg id="Capa_1" enable-background="new 0 0 512 512" height="512" viewBox="0 0 512 512" width="512" xmlns="http://www.w3.org/2000/svg"><path d="m79.089 176.911c0-97.549 79.362-176.911 176.911-176.911s176.911 79.362 176.911 176.911z" fill="#818181"/><g fill="#595959"><path d="m79.089 176.911h62.439v-62.439h-51.049c-7.352 19.426-11.39 40.468-11.39 62.439z"/><path d="m256 0c-3.318 0-6.613.1-9.886.281 64.324 3.561 119.592 41.641 147.544 95.98 4.276 8.313-1.761 18.211-11.11 18.211h-12.076v62.439h62.439c0-97.549-79.362-176.911-176.911-176.911z"/><path d="m56.423 301.789h11.22v-124.878h-11.22c-11.046 0-20 8.954-20 20v84.878c0 11.045 8.954 20 20 20z"/></g><path d="m87.642 343.415h33.073v-208.13h-33.073c-11.046 0-20 8.954-20 20v168.13c0 11.045 8.955 20 20 20z" fill="#cbcbcb"/><path d="m455.577 301.789h-11.22v-124.878h11.22c11.046 0 20 8.954 20 20v84.878c0 11.045-8.954 20-20 20z" fill="#595959"/><path d="m424.358 343.415h-33.073v-208.13h33.073c11.046 0 20 8.954 20 20v168.13c0 11.045-8.955 20-20 20z" fill="#cbcbcb"/><path d="m200.846 440.195v61.805c0 5.523 4.477 10 10 10h90.309c5.523 0 10-4.477 10-10v-61.805z" fill="#fcd0a3"/><path d="m200.846 474.501c17.27 6.081 35.831 9.401 55.154 9.401s37.884-3.32 55.154-9.401v-34.306h-110.308z" fill="#fba65c"/><path d="m256 40.585c-80.463 0-145.691 65.228-145.691 145.691v131.122c0 80.463 65.228 145.691 145.691 145.691s145.691-65.228 145.691-145.691v-131.122c0-80.463-65.228-145.691-145.691-145.691z" fill="#fcd0a3"/><path d="m256 40.585c-5.81 0-11.538.351-17.171 1.012 72.369 8.498 128.52 70.026 128.52 144.679v131.122c0 74.653-56.151 136.181-128.52 144.679 5.633.661 11.36 1.012 17.171 1.012 80.463 0 145.691-65.228 145.691-145.691v-131.122c0-80.463-65.228-145.691-145.691-145.691z" fill="#fba65c"/><path d="m297.626 46.63c-13.191-3.926-27.16-6.045-41.626-6.045s-28.435 2.119-41.626 6.045v47.028h83.252z" fill="#595959"/><path d="m318.439 114.472v31.22h-124.878v-31.22c0-11.495 9.318-20.813 20.813-20.813h83.252c11.495 0 20.813 9.318 20.813 20.813z" fill="#cbcbcb"/><path d="m256 145.691h119.675c22.989 0 41.626 18.637 41.626 41.626v104.065c0 22.989-18.637 41.626-41.626 41.626h-45.908c-12.924 0-25.671-3.009-37.231-8.789l-17.92-8.96c-11.719-5.859-25.513-5.859-37.231 0l-17.92 8.96c-11.56 5.78-24.307 8.789-37.231 8.789h-45.908c-22.989 0-41.626-18.637-41.626-41.626v-104.065c0-22.989 18.637-41.626 41.626-41.626z" fill="#818181"/><path d="m318.439 130.081h-62.439-62.439v15.61h124.878z" fill="#ababab"/><path d="m375.675 145.691h-18.732c22.989 0 41.626 18.637 41.626 41.626v108.228c0 11.495-9.318 20.813-20.813 20.813h-47.989c-12.924 0-25.671-3.009-37.231-8.789l-17.92-8.96c-11.719-5.859-25.513-5.859-37.231 0l-17.92 8.96c-11.56 5.78-24.307 8.789-37.231 8.789h-45.908c-22.989 0-41.626-18.637-41.626-41.626v16.65c0 22.989 18.637 41.626 41.626 41.626h45.908c12.924 0 25.671-3.009 37.231-8.789l17.92-8.96c11.719-5.859 25.513-5.859 37.231 0l17.92 8.96c11.56 5.78 24.307 8.789 37.231 8.789h27.176 18.732c22.989 0 41.626-18.637 41.626-41.626v-104.065c0-22.989-18.637-41.626-41.626-41.626z" fill="#595959"/><path d="m282.626 203.967h-53.252c-8.284 0-15-6.716-15-15v-1.22c0-8.284 6.716-15 15-15h53.252c8.284 0 15 6.716 15 15v1.22c0 8.285-6.716 15-15 15z" fill="#62d8f9"/></svg>