<svg id="Layer_5" enable-background="new 0 0 64 64" height="512" viewBox="0 0 64 64" width="512" xmlns="http://www.w3.org/2000/svg" xmlns:xlink="http://www.w3.org/1999/xlink"><linearGradient id="SVGID_1_" gradientUnits="userSpaceOnUse" x1="32" x2="32" y1="63" y2="1"><stop offset="0" stop-color="#9f2fff"/><stop offset="1" stop-color="#0bb1d3"/></linearGradient><path d="m57 11h-2v-10h-18c-3.309 0-6 2.691-6 6v14h-24c-3.309 0-6 2.691-6 6v30c0 3.309 2.691 6 6 6h8v-10h42c3.309 0 6-2.691 6-6v-30c0-3.309-2.691-6-6-6zm3.444 4h-3.444v-2c1.474 0 2.75.81 3.444 2zm-13.444-10v-2h2v2zm-2 0h-2v-2h2zm-4 0h-2v-2h2zm12 2v4h-16c-2.206 0-4-1.794-4-4zm-18 5.65v2.35h-2v-3.54c.578.518 1.254.925 2 1.19zm2 .35h2v2h-2zm4 0h2v2h-2zm4 0h2v2h-2zm4 0h2v2h-2zm4 0h2v2h-2zm0-8h-2v-2h2zm-16-2v2h-3.444c.694-1.19 1.97-2 3.444-2zm-4 14h28c0 2.206-1.794 4-4 4h-24zm12 30v-20h16v20zm-30-13.771 5.202 3.716-5.202 3.251zm0 9.325 8.798-5.498-8.478-6.056h-.32-1-7c-2.206 0-4-1.794-4-4h22v20h-10zm42-17.554h-2v-2h2zm-4 0h-2v-2h2zm-4 0h-2v-2h2zm-22 22v-20h16v20zm18-22h-2v-2h2zm-4 0h-2v-2h2zm-4 0h-2v-2h2zm-4 0h-2v-2h2zm-4 0h-2v-2h2zm-4 0h-2v-2h2zm-4 0h-2v-2h2zm-4 0h-2v-2h2zm-4 0h-2v-2h2zm8 24v2h-2v-2zm2 0h2v2h-2zm4 0h2v2h-2zm4 0h2v2h-2zm4 0h2v2h-2zm4 0h2v2h-2zm4 0h2v2h-2zm4 0h2v2h-2zm4 0h2v2h-2zm8-24v-2.35c.746-.265 1.422-.672 2-1.19v3.54zm-50-2v2h-2v-2zm-4 .556v1.444h-1.444c.35-.599.845-1.094 1.444-1.444zm8 37.444h-6c-2.206 0-4-1.794-4-4v-25.531c1.062.951 2.465 1.531 4 1.531h6zm2-12h2v2h-2zm40 2v-2h2v2zm4-.556v-1.444h1.444c-.35.599-.845 1.094-1.444 1.444zm-12-6.826 13.236-6.618-13.236-6.618zm2-10 6.764 3.382-6.764 3.382zm-20-3.236v13.236l13.236-6.618zm2 3.236 6.764 3.382-6.764 3.382z" fill="url(#SVGID_1_)"/></svg>